# xmcd
#
# Track frame offsets: 
#        150
#        20081
#        29983
#        43696
#        56452
#
# Disc length: 930 seconds
#
# Revision: 0
# Processed by: cddbd v1.5.2PL0 Copyright (c) Steve Scherf et al.
# Submitted via: ExactAudioCopy v0.95a4
#
DISCID=4303a005
DTITLE=Lady Dottie and the Diamonds - Livin' It Up
DYEAR=2007
DGENRE=Blues
TTITLE0=Come Along Together
TTITLE1=Livin' It Up
TTITLE2=Love Me or Leave Me
TTITLE3=I Ain't Mad at Ya
TTITLE4=Crazy 'Bout You Baby
EXTD=
EXTT0=
EXTT1=
EXTT2=
EXTT3=
EXTT4=
PLAYORDER=
